<svg width="856" height="836" viewBox="0 0 856 836" fill="none" xmlns="http://www.w3.org/2000/svg">
<path d="M200.888 0.0537491C251.553 0.158905 302.221 0.0535278 352.887 0.0658264C418.22 -0.0211259 483.558 0.15921 548.89 0.00106812C550.669 -0.0151444 552.239 0.147804 553.917 0.77877C560.393 1.47682 567.173 2.10094 573.355 4.25829C581.433 6.38558 589.92 8.96472 597.052 13.4113C602.404 16.61 607.69 18.908 612.437 23.0021C623.19 31.2595 632.368 40.9826 641.701 50.7505C665.749 73.9855 689.059 98.0818 712.958 121.482C721.07 129.018 728.523 137.169 736.435 144.904C741.537 150.219 746.991 155.045 751.798 160.643C762.827 173.252 771.178 188.093 776.183 204.084C778.42 209.778 779.086 215.591 780.072 221.586C780.552 225.664 781.454 229.466 781.489 233.564C781.669 260.228 781.518 286.902 781.527 313.564C781.666 319.782 780.951 325.447 782.854 331.454C783.615 333.182 785.056 334.712 786.317 336.101C792.902 343.202 800.152 349.612 806.563 356.889C815.57 365.563 824.006 374.771 832.971 383.487C840.641 391.974 847.944 401.77 851.216 412.869C853.658 419.828 855.812 427.109 855.547 434.564C855.441 439.216 855.749 443.924 855.311 448.557C854.603 453.607 853.305 458.415 851.821 463.279C848.788 474.301 841.871 484.539 834.385 493.048C817.222 510.68 799.531 527.716 782.23 545.206C782.262 546.729 782.292 548.251 782.32 549.774C782.024 548.256 781.744 546.735 781.443 545.219C781.574 581.333 781.486 617.449 781.537 653.563C781.476 674.224 781.647 694.902 781.395 715.562C781.041 736.57 774.902 756.964 764.427 775.104C760.131 781.717 755.494 788.079 750.36 794.069C744.058 801.24 736.329 807.475 728.621 813.077C716.896 820.68 703.925 827.282 690.3 830.619C680.614 832.219 670.673 833.232 660.886 833.978C646.226 834.326 631.55 834.107 616.886 834.168C589.889 834.408 562.885 834.186 535.887 834.166C498.887 834.077 461.888 834.108 424.888 834.001C409.218 834.036 393.557 834.239 377.887 834.003C365.892 833.831 353.864 834.256 341.878 833.917C334.13 832.47 326.459 833.35 318.648 832.859C322.212 831.233 325.996 830.414 329.666 829.104C365.04 817.343 396.431 793.164 419.167 763.864C436.853 740.199 454.527 716.291 472.304 692.492C453.931 688.572 437.925 678.978 425.771 664.676C425.061 663.883 423.46 661.746 422.382 663.021C398.811 695.193 375.678 727.435 351.663 759.335C337.381 777.527 320.107 793.842 300.557 806.261C281.619 818.305 260.788 826.869 238.931 831.912C222.607 835.512 205.459 836.088 188.875 834.183C176.217 833.155 163.966 830.335 152.156 825.674C139.523 820.272 127.727 814.267 117.393 805.063C113.151 800.965 108.914 796.871 104.879 792.567C96.1284 782.929 89.7938 771.884 84.5265 760.041C81.0107 751.45 78.6407 742.514 76.7691 733.437C75.1966 722.231 74.3604 710.881 74.4984 699.562C74.4275 663.896 74.6254 628.231 74.4709 592.563C74.3983 577.429 74.6382 562.28 74.3136 547.15C69.9459 540.339 63.3096 534.503 57.4298 529.013C50.8412 522.601 44.2924 516.158 37.8497 509.598C28.4705 499.882 16.978 489.943 10.4341 478.102C6.06586 471.746 3.79848 463.824 1.91359 456.419C-0.686449 447.646 -8.58903e-05 437.621 0.353521 428.547C2.0151 417.858 5.66987 407.259 11.4331 398.075C15.5349 392.32 20.1817 386.84 24.902 381.581C40.2019 366.196 55.5188 350.869 70.8962 335.562C75.6472 331.15 74.2279 324.354 74.386 318.563C74.62 254.566 74.2013 190.559 74.5214 126.564C75.1236 107.769 79.4236 89.2436 87.8278 72.3861C94.0824 58.5737 103.348 47.301 113.808 36.4891C121.642 28.3386 131.414 21.6611 141.005 15.7568C151.664 9.35264 162.914 6.05309 174.722 2.45892C183.368 1.3183 192.147 -0.0877763 200.888 0.0537491ZM123.891 286.633C128.293 285.086 132.371 282.88 136.833 281.488C148.507 277.71 160.339 277.075 172.363 279.552C172.404 230.585 172.317 181.51 172.389 132.543C172.315 125.607 173.497 118.904 177.344 113.017C182.869 103.988 193.348 98.5367 203.889 98.9012C308.223 98.9696 412.557 98.8478 516.888 98.9476C522.169 98.9073 527.438 99.0159 532.716 98.8434C532.85 82.6736 532.904 66.4795 532.744 50.3134C485.539 50.1283 438.117 50.2835 390.888 50.239C328.221 50.2438 265.552 50.1479 202.886 50.2587C189.089 50.0169 175.771 53.5544 163.939 60.6351C147.185 70.6908 133.884 86.9502 127.95 105.625C125.144 114.613 123.746 124.147 123.925 133.563C123.918 184.52 123.801 235.69 123.891 286.633ZM582.391 63.0669C582.417 88.5763 582.471 114.083 582.461 139.592C582.714 150.43 584.921 161.359 590.871 170.579C596.392 179.951 605.041 187.167 615.028 191.374C621.414 193.987 628.06 194.552 634.885 194.837C661.476 194.914 688.084 194.751 714.673 194.961C699.512 180.079 684.702 164.797 669.606 149.842C648.313 128.801 627.349 107.432 605.981 86.4645C598.167 78.6145 590.409 70.7192 582.391 63.0669ZM222.104 466.874C240.191 466.936 258.28 466.883 276.368 466.912C276.403 426.796 276.362 386.68 276.377 346.564C276.309 334.679 278.6 322.077 285.509 312.163C289.934 306.143 295.943 300.422 302.972 297.634C312.073 293.901 322.891 293.612 332.011 297.433C340.865 300.988 348.222 308.384 352.698 316.714C357.916 326.56 358.812 337.599 359.213 348.564C359.24 382.563 359.223 416.563 359.214 450.563C359.275 456.43 358.949 462.32 359.322 468.167C361.149 467.421 362.349 466.723 363.517 465.129C369.388 457.641 375.01 449.946 380.606 442.25C391.123 428.12 401.676 414.026 412.167 399.889C413.248 398.564 413.021 397.164 413.086 395.568C413.018 379.233 413.039 362.898 413.062 346.563C413.164 336.32 414.262 326.081 419.281 316.96C423.292 309.848 428.701 303.587 435.946 299.638C451.214 290.678 473.106 294.2 483.906 308.547C492.653 319.064 495.321 332.173 495.378 345.555C495.38 376.223 495.373 406.894 495.382 437.563C495.56 448.105 495.08 458.68 495.583 469.189C501.972 458.836 507.544 447.993 514.035 437.69C523.484 421.605 535.223 407.096 549.709 395.276C549.704 378.039 549.655 360.801 549.676 343.564C549.721 326.56 546.906 308.55 539.233 293.222C531.847 277.74 519.946 265.115 505.639 255.794C485.118 243.132 459.947 238.653 436.355 243.743C416.815 247.903 399.629 258.709 386.253 273.388C375.951 261.638 363.065 252.418 348.306 247.147C332.143 241.022 314.772 240.423 297.895 243.607C275.885 248.037 255.487 260.658 241.988 278.631C227.677 297.416 222.212 320.249 222.135 343.563C222.074 384.667 222.169 425.771 222.104 466.874ZM721.242 413.175C692.463 413.411 663.667 413.085 634.885 413.281C619.893 413.665 605.466 418.52 592.805 426.443C579.157 434.535 568.214 447.057 559.435 460.105C552.601 470.04 547.199 481.301 541.072 491.76C526.602 517.978 511.962 544.081 497.737 570.425C496.656 572.461 495.465 574.43 494.229 576.375C474.168 535.975 453.577 495.813 433.703 455.321C427.347 463.042 421.709 471.418 415.732 479.44C409.573 487.455 403.751 495.724 397.611 503.751C405.29 519.908 414.03 535.51 421.859 551.59C429.478 565.772 436.603 580.186 443.938 594.514C449.38 604.809 454.527 615.25 459.829 625.617C463.972 633.287 470.323 639.66 478.482 642.957C491.913 648.886 508.553 646.076 518.954 635.632C525.6 629.042 529.145 621.41 533.775 613.473C540.804 600.578 548.327 587.955 555.391 575.079C569.124 551.09 582.336 526.797 596.203 502.885C602.004 492.506 608.233 482.836 617.161 474.828C624.603 468.623 634.119 464.952 643.857 465.066C669.923 465.106 695.98 465.073 722.045 465.06C711.461 476.316 699.951 486.774 689.163 497.84C685.507 501.499 681.569 504.934 678.057 508.732C671.307 516.002 669.811 527.476 674.117 536.355C678.365 545.237 687.954 551.287 697.895 550.414C704.682 550.129 710.771 546.963 715.392 542.072C741.828 515.176 768.618 488.618 795.213 461.888C797.927 459.165 800.59 456.582 802.582 453.254C807.525 445.138 807.684 434.492 803.394 426.069C800.785 420.72 796.457 417.245 792.346 413.114C767.814 388.326 743.114 363.668 718.559 338.894C715.762 336.036 713.06 332.928 709.63 330.814C703.739 327.138 695.99 326.07 689.334 328.052C682.35 330.187 676.417 335.544 673.575 342.272C670.315 349.813 671.148 358.991 675.598 365.877C678.262 369.698 682.015 372.86 685.278 376.174C695.216 386.229 705.008 396.437 714.939 406.496C717.106 408.675 719.345 410.744 721.242 413.175ZM104.8 439.321C127.182 416.333 150.194 393.34 172.623 370.293C177.128 365.657 180.509 359.145 180.272 352.562C180.278 342.336 172.967 332.08 162.895 329.588C157.159 328.233 151.07 328.548 145.883 331.542C141.047 334.131 137.884 337.971 134.159 341.837C110.926 365.606 87.2753 388.977 63.9362 412.618C58.89 417.571 52.6267 423.087 50.334 429.946C46.7761 439.83 49.493 451.155 56.953 458.497C74.2619 475.601 91.3876 492.659 108.748 509.702C113.235 514.218 117.564 518.881 122.179 523.271C128.869 529.579 135.026 536.426 141.75 542.715C149.634 550.548 163.461 551.726 172.457 545.135C179.953 539.982 183.546 530.387 181.879 521.525C180.947 516.579 178.707 511.894 175.173 508.277C159.831 492.946 144.092 478.035 128.802 462.65C120.59 455.068 113.183 446.717 104.8 439.321ZM363.253 552.947C348.054 574.003 332.433 594.73 317.053 615.645C300.175 638.375 283.519 661.453 266.337 684.027C260.912 691.547 255.345 698.96 249.776 706.373C243.885 714.309 238.064 722.787 229.834 728.501C223.221 733.242 216.116 737.143 207.899 738.063C203.572 738.305 199.195 738.182 194.876 737.854C187.135 735.576 181.212 731.358 176.487 724.829C173.052 720.339 171.851 714.078 171.466 708.562C171.579 671.943 171.377 635.313 171.568 598.697C167.757 600.236 163.912 600.077 159.887 600.07C147.646 600.695 135.059 597.032 124.286 591.357C124.499 629.417 124.316 667.497 124.395 705.561C124.094 709.994 125.337 714.158 125.4 718.569C127.04 730.684 130.98 742.413 138.117 752.432C150.361 770.362 170.538 781.754 191.994 784.194C206.671 786.779 222.626 783.818 236.519 778.797C251.085 773.332 263.973 764.58 275.088 753.76C280.748 747.92 286.364 742.493 291.199 736.011C308.911 712.929 325.851 689.266 343.398 666.057C353.764 652.145 364.216 638.218 374.57 624.244C379.674 617.078 385.291 610.174 390.125 602.838C391.161 601.328 390.395 600.121 389.693 598.699C381.286 582.737 372.771 566.85 364.861 550.63C364.327 551.404 363.791 552.176 363.253 552.947ZM683.606 599.952C683.531 634.822 683.564 669.693 683.614 704.563C683.576 708.436 683.933 712.784 682.884 716.526C680.52 725.115 674.359 732.578 665.818 735.542C660.523 737.673 655.475 737.012 649.887 737.109C601.435 737.089 552.98 737.103 504.527 737.088C492.732 753.169 480.847 769.189 468.856 785.125C530.965 784.979 593.08 785.191 655.189 785.018C670.57 785.252 685.802 780.935 698.49 772.185C718.834 758.565 731.167 734.946 731.678 710.563C731.815 670.724 731.617 630.875 731.76 591.036C717.14 599.139 700.206 602.783 683.606 599.952Z" fill="var(--color-primary, #2b4eb4)"/>
</svg>
